# xmcd
#
# Track frame offsets:
#	150
#	23057
#	36057
#	54866
#	71151
#	93008
#	107056
#	124661
#	142460
#	153492
#	170532
#
# Disc length: 2514 seconds
#
# Revision: 0
# Processed by: cddbd v1.5.1PL0 Copyright (c) Steve Scherf et al.
# Submitted via: dBpowerAMP V4.0
#
DISCID=9109d00b
DTITLE=Gil Edwards - Can`t give it up
DYEAR=1900
DGENRE=Blues
TTITLE0=Movin` around
TTITLE1=Man in trouble
TTITLE2=Pray for you
TTITLE3=Chevrolet
TTITLE4=Raven
TTITLE5=Cold coffee
TTITLE6=Can`t give it up
TTITLE7=Stand by the river
TTITLE8=Workin`boy
TTITLE9=Free
TTITLE10=Silence is gold
EXTD=
EXTT0=
EXTT1=
EXTT2=
EXTT3=
EXTT4=
EXTT5=
EXTT6=
EXTT7=
EXTT8=
EXTT9=
EXTT10=
PLAYORDER=
